<svg width="33" height="32" viewBox="0 0 33 32" fill="none" xmlns="http://www.w3.org/2000/svg">
<path d="M4.78711 29.3335H28.7871" stroke="#F83D4F" stroke-width="2" stroke-linecap="round" stroke-linejoin="round"/>
<path d="M8.25374 11.1733H6.12044C5.38711 11.1733 4.78711 11.7733 4.78711 12.5067V24C4.78711 24.7333 5.38711 25.3333 6.12044 25.3333H8.25374C8.98708 25.3333 9.58708 24.7333 9.58708 24V12.5067C9.58708 11.7733 8.98708 11.1733 8.25374 11.1733Z" stroke="#F83D4F" stroke-width="2" stroke-linecap="round" stroke-linejoin="round"/>
<path d="M17.8534 6.91992H15.7201C14.9867 6.91992 14.3867 7.51992 14.3867 8.25326V23.9999C14.3867 24.7333 14.9867 25.3333 15.7201 25.3333H17.8534C18.5867 25.3333 19.1867 24.7333 19.1867 23.9999V8.25326C19.1867 7.51992 18.5867 6.91992 17.8534 6.91992Z" stroke="#F83D4F" stroke-width="2" stroke-linecap="round" stroke-linejoin="round"/>
<path d="M27.4539 2.6665H25.3206C24.5873 2.6665 23.9873 3.2665 23.9873 3.99984V23.9998C23.9873 24.7332 24.5873 25.3332 25.3206 25.3332H27.4539C28.1873 25.3332 28.7873 24.7332 28.7873 23.9998V3.99984C28.7873 3.2665 28.1873 2.6665 27.4539 2.6665Z" stroke="#F83D4F" stroke-width="2" stroke-linecap="round" stroke-linejoin="round"/>
</svg>
