<svg width="25" height="24" viewBox="0 0 25 24" fill="none" xmlns="http://www.w3.org/2000/svg">
<path d="M11.3 14.95L9.45 16.8C9.06 17.19 8.44 17.19 8.04 16.81C7.93 16.7 7.82 16.6 7.71 16.49C6.68 15.45 5.75 14.36 4.92 13.22C4.1 12.08 3.44 10.94 2.96 9.81C2.49 8.67 2.25 7.58 2.25 6.54C2.25 5.86 2.37 5.21 2.61 4.61C2.85 4 3.23 3.44 3.76 2.94C4.4 2.31 5.1 2 5.84 2C6.12 2 6.4 2.06 6.65 2.18C6.91 2.3 7.14 2.48 7.32 2.74L9.64 6.01C9.82 6.26 9.95 6.49 10.04 6.71C10.13 6.92 10.18 7.13 10.18 7.32C10.18 7.56 10.11 7.8 9.97 8.03C9.84 8.26 9.65 8.5 9.41 8.74L8.65 9.53C8.54 9.64 8.49 9.77 8.49 9.93C8.49 10.01 8.5 10.08 8.52 10.16C8.55 10.24 8.58 10.3 8.6 10.36C8.78 10.69 9.09 11.12 9.53 11.64C9.98 12.16 10.46 12.69 10.98 13.22C11.08 13.32 11.19 13.42 11.29 13.52C11.69 13.91 11.7 14.55 11.3 14.95Z" fill="#F83D4F"/>
<path d="M22.2196 18.33C22.2196 18.61 22.1696 18.9 22.0696 19.18C22.0396 19.26 22.0096 19.34 21.9696 19.42C21.7996 19.78 21.5796 20.12 21.2896 20.44C20.7996 20.98 20.2596 21.37 19.6496 21.62C19.6396 21.62 19.6296 21.63 19.6196 21.63C19.0296 21.87 18.3896 22 17.6996 22C16.6796 22 15.5896 21.76 14.4396 21.27C13.2896 20.78 12.1396 20.12 10.9996 19.29C10.6096 19 10.2196 18.71 9.84961 18.4L13.1196 15.13C13.3996 15.34 13.6496 15.5 13.8596 15.61C13.9096 15.63 13.9696 15.66 14.0396 15.69C14.1196 15.72 14.1996 15.73 14.2896 15.73C14.4596 15.73 14.5896 15.67 14.6996 15.56L15.4596 14.81C15.7096 14.56 15.9496 14.37 16.1796 14.25C16.4096 14.11 16.6396 14.04 16.8896 14.04C17.0796 14.04 17.2796 14.08 17.4996 14.17C17.7196 14.26 17.9496 14.39 18.1996 14.56L21.5096 16.91C21.7696 17.09 21.9496 17.3 22.0596 17.55C22.1596 17.8 22.2196 18.05 22.2196 18.33Z" fill="#F83D4F"/>
</svg>
