<svg width="20" height="20" viewBox="0 0 20 20" fill="none" xmlns="http://www.w3.org/2000/svg">
<path d="M4.54943 14.5459H15.4501M4.54943 11.7026C3.62829 11.5048 2.81998 10.957 2.29503 10.1746C1.77008 9.3923 1.56952 8.43664 1.73567 7.50926C1.90182 6.58189 2.42169 5.7553 3.1856 5.20388C3.94951 4.65245 4.89774 4.4193 5.83026 4.5536C6.05975 4.03276 6.38306 3.55857 6.78407 3.15468C7.20598 2.73171 7.70719 2.39612 8.25899 2.16715C8.8108 1.93817 9.40235 1.82031 9.99978 1.82031C10.5972 1.82031 11.1888 1.93817 11.7406 2.16715C12.2924 2.39612 12.7936 2.73171 13.2155 3.15468C13.6165 3.55857 13.9398 4.03276 14.1693 4.5536C15.1018 4.4193 16.05 4.65245 16.814 5.20388C17.5779 5.7553 18.0977 6.58189 18.2639 7.50926C18.43 8.43664 18.2295 9.3923 17.7045 10.1746C17.1796 10.957 16.3713 11.5048 15.4501 11.7026V18.1795H4.54943V11.7026Z" stroke="#B4AAA9" stroke-width="1.25" stroke-linecap="round" stroke-linejoin="round"/>
</svg>
