<svg width="20" height="20" viewBox="0 0 20 20" fill="none" xmlns="http://www.w3.org/2000/svg">
<path d="M4.54966 14.5459H15.4503M4.54966 11.7026C3.62852 11.5048 2.82021 10.957 2.29526 10.1746C1.77031 9.3923 1.56975 8.43664 1.7359 7.50926C1.90205 6.58189 2.42192 5.7553 3.18583 5.20388C3.94974 4.65245 4.89797 4.4193 5.83049 4.5536C6.05998 4.03276 6.38329 3.55857 6.7843 3.15468C7.20621 2.73171 7.70742 2.39612 8.25922 2.16715C8.81103 1.93817 9.40258 1.82031 10 1.82031C10.5974 1.82031 11.189 1.93817 11.7408 2.16715C12.2926 2.39612 12.7938 2.73171 13.2157 3.15468C13.6167 3.55857 13.94 4.03276 14.1695 4.5536C15.102 4.4193 16.0503 4.65245 16.8142 5.20388C17.5781 5.7553 18.098 6.58189 18.2641 7.50926C18.4303 8.43664 18.2297 9.3923 17.7048 10.1746C17.1798 10.957 16.3715 11.5048 15.4503 11.7026V18.1795H4.54966V11.7026Z" stroke="white" stroke-width="1.25" stroke-linecap="round" stroke-linejoin="round"/>
</svg>
