<svg width="25" height="24" viewBox="0 0 25 24" fill="none" xmlns="http://www.w3.org/2000/svg">
<path d="M21.21 8.11949V17.5295C21.21 19.9895 19.2 21.9995 16.74 21.9995H8.26004C5.80004 21.9995 3.79004 19.9895 3.79004 17.5295V8.11949C3.79004 6.40949 4.75004 4.91949 6.16004 4.16949C6.65004 3.90949 7.26004 4.25949 7.26004 4.81949C7.26004 6.40949 8.56004 7.70949 10.15 7.70949H14.85C16.44 7.70949 17.74 6.40949 17.74 4.81949C17.74 4.25949 18.34 3.90949 18.84 4.16949C20.25 4.91949 21.21 6.40949 21.21 8.11949Z" fill="#B4AAA9"/>
<path d="M14.8498 2H10.1498C9.10977 2 8.25977 2.84 8.25977 3.88V4.82C8.25977 5.86 9.09977 6.7 10.1398 6.7H14.8498C15.8898 6.7 16.7298 5.86 16.7298 4.82V3.88C16.7398 2.84 15.8898 2 14.8498 2Z" fill="#B4AAA9"/>
</svg>
