<svg width="65" height="65" viewBox="0 0 65 65" fill="none" xmlns="http://www.w3.org/2000/svg">
<path d="M55.4866 20.6997C52.7133 8.35301 41.9399 2.83301 32.4999 2.83301C32.4999 2.83301 32.4999 2.83301 32.4733 2.83301C23.0599 2.83301 12.3133 8.35301 9.51328 20.673C6.36661 34.433 14.7933 46.0863 22.4199 53.4463C25.2466 56.1663 32.5533 63.3184 32.5533 63.3184C32.5533 63.3184 39.7533 56.1663 42.5533 53.4463C50.18 46.0863 58.6066 34.4597 55.4866 20.6997ZM39.2466 33.473C38.8466 33.873 38.3399 34.0597 37.8333 34.0597C37.3266 34.0597 36.8199 33.873 36.4199 33.473L32.5533 29.6063L28.5799 33.5797C28.1799 33.9797 27.6733 34.1663 27.1666 34.1663C26.6599 34.1663 26.1533 33.9797 25.7533 33.5797C24.9799 32.8063 24.9799 31.5263 25.7533 30.753L29.7266 26.7797L25.8599 22.913C25.0866 22.1397 25.0866 20.8597 25.8599 20.0863C26.6333 19.313 27.9133 19.313 28.6866 20.0863L32.5533 23.953L36.2866 20.2197C37.0599 19.4463 38.3399 19.4463 39.1133 20.2197C39.8866 20.993 39.8866 22.273 39.1133 23.0463L35.3799 26.7797L39.2466 30.6463C40.0199 31.4197 40.0199 32.673 39.2466 33.473Z" fill="#F83D4F"/>
</svg>
