<svg width="33" height="32" viewBox="0 0 33 32" fill="none" xmlns="http://www.w3.org/2000/svg">
<path d="M23.4541 28H10.1208C4.78743 28 3.4541 26.6667 3.4541 21.3333V10.6667C3.4541 5.33333 4.78743 4 10.1208 4H23.4541C28.7874 4 30.1208 5.33333 30.1208 10.6667V21.3333C30.1208 26.6667 28.7874 28 23.4541 28Z" stroke="#F83D4F" stroke-width="2" stroke-linecap="round" stroke-linejoin="round"/>
<path d="M19.4541 10.6665H26.1208" stroke="#F83D4F" stroke-width="2" stroke-linecap="round" stroke-linejoin="round"/>
<path d="M20.7871 16H26.1204" stroke="#F83D4F" stroke-width="2" stroke-linecap="round" stroke-linejoin="round"/>
<path d="M23.4541 21.3335H26.1208" stroke="#F83D4F" stroke-width="2" stroke-linecap="round" stroke-linejoin="round"/>
<path d="M12.1204 15.0532C13.4532 15.0532 14.5337 13.9727 14.5337 12.6399C14.5337 11.307 13.4532 10.2266 12.1204 10.2266C10.7875 10.2266 9.70703 11.307 9.70703 12.6399C9.70703 13.9727 10.7875 15.0532 12.1204 15.0532Z" stroke="#F83D4F" stroke-width="2" stroke-linecap="round" stroke-linejoin="round"/>
<path d="M16.7874 21.7733C16.6008 19.84 15.0674 18.32 13.1341 18.1467C12.4674 18.08 11.7874 18.08 11.1074 18.1467C9.1741 18.3333 7.64077 19.84 7.4541 21.7733" stroke="#F83D4F" stroke-width="2" stroke-linecap="round" stroke-linejoin="round"/>
</svg>
