<svg width="49" height="48" viewBox="0 0 49 48" fill="none" xmlns="http://www.w3.org/2000/svg">
<path d="M28.6767 3.44699L32.9067 11.907C33.4767 13.077 35.0067 14.187 36.2967 14.427L43.9467 15.687C48.8367 16.497 49.9767 20.037 46.4667 23.577L40.4967 29.547C39.5067 30.537 38.9367 32.487 39.2667 33.897L40.9767 41.277C42.3267 47.097 39.2067 49.377 34.0767 46.317L26.9067 42.057C25.6167 41.277 23.4567 41.277 22.1667 42.057L14.9967 46.317C9.86666 49.347 6.74666 47.097 8.09666 41.277L9.80666 33.897C10.0767 32.457 9.50666 30.507 8.51666 29.517L2.54666 23.547C-0.963338 20.037 0.176662 16.497 5.06666 15.657L12.7167 14.397C14.0067 14.187 15.5367 13.047 16.1067 11.877L20.3367 3.41699C22.6467 -1.14301 26.3667 -1.14301 28.6767 3.44699Z" fill="#E7E1E1"/>
</svg>
