<svg width="49" height="48" viewBox="0 0 49 48" fill="none" xmlns="http://www.w3.org/2000/svg">
<path d="M24.7871 4C13.7471 4 4.78711 12.96 4.78711 24C4.78711 35.04 13.7471 44 24.7871 44C35.8271 44 44.7871 35.04 44.7871 24C44.7871 12.96 35.8271 4 24.7871 4ZM31.8471 26.46L21.4871 33.64C19.9671 34.7 19.0871 34.08 19.5271 32.3L21.4271 24.62L18.1271 23.8C16.6271 23.44 16.4471 22.4 17.7071 21.52L28.0671 14.34C29.5871 13.28 30.4671 13.9 30.0271 15.68L28.1271 23.36L31.4271 24.18C32.9271 24.56 33.1071 25.58 31.8471 26.46Z" fill="white"/>
</svg>
