<svg width="33" height="32" viewBox="0 0 33 32" fill="none" xmlns="http://www.w3.org/2000/svg">
<path d="M5.88867 13.5735C5.88867 13.5735 7.9394 12.2299 8.7954 11.1208C9.79631 9.82394 11.3387 8.12305 11.3387 8.12305C11.3387 8.12305 14.1964 9.29335 16.7886 9.48551C19.1356 9.65949 19.9147 8.36754 22.2387 8.66813C25.6063 9.10368 27.6893 13.5735 27.6893 13.5735" stroke="#F83D4F" stroke-width="2" stroke-linecap="round" stroke-linejoin="round"/>
<path d="M27.6893 19.9446V15.5844V12.3144C27.6893 6.29429 22.809 1.41406 16.789 1.41406V1.41406C10.7689 1.41406 5.88867 6.2943 5.88867 12.3144V18.8545C5.88867 24.8746 10.7689 29.7548 16.789 29.7548V29.7548" stroke="#F83D4F" stroke-width="2" stroke-linecap="round"/>
<path d="M27.6895 15.585H28.291C29.5058 15.585 30.4907 16.5698 30.4907 17.7847C30.4907 18.9995 29.5058 19.9844 28.291 19.9844H27.6895V15.585Z" fill="#F83D4F" stroke="#F83D4F" stroke-width="2" stroke-linejoin="round"/>
<path d="M5.88867 15.585H5.28714C4.07228 15.585 3.08744 16.5698 3.08744 17.7847C3.08744 18.9995 4.07228 19.9844 5.28714 19.9844H5.88867V15.585Z" fill="#F83D4F" stroke="#F83D4F" stroke-width="2" stroke-linejoin="round"/>
<rect x="-1" y="1" width="2.48911" height="2.48911" rx="1.24456" transform="matrix(-1 0 0 1 18.123 27.5098)" fill="#F83D4F" stroke="#F83D4F" stroke-width="2"/>
<circle cx="12.7871" cy="16.1865" r="2" fill="#F83D4F"/>
<circle cx="20.7871" cy="16.1865" r="2" fill="#F83D4F"/>
</svg>
