<svg width="24" height="24" viewBox="0 0 24 24" fill="none" xmlns="http://www.w3.org/2000/svg">
<path d="M12 22C17.5228 22 22 17.5228 22 12C22 6.47715 17.5228 2 12 2C6.47715 2 2 6.47715 2 12C2 17.5228 6.47715 22 12 22Z" stroke="#F83D4F" stroke-width="1.5" stroke-linecap="round" stroke-linejoin="round"/>
<path d="M12.0031 18.128C11.6725 18.128 11.4165 18.0373 11.2351 17.856C11.0645 17.664 10.9791 17.392 10.9791 17.04V10.624H8.05113C7.80579 10.624 7.61379 10.5653 7.47513 10.448C7.34713 10.32 7.28313 10.144 7.28313 9.92C7.28313 9.696 7.34713 9.52533 7.47513 9.408C7.61379 9.28 7.80579 9.216 8.05113 9.216H15.9551C16.2005 9.216 16.3871 9.28 16.5151 9.408C16.6538 9.52533 16.7231 9.696 16.7231 9.92C16.7231 10.144 16.6538 10.32 16.5151 10.448C16.3871 10.5653 16.2005 10.624 15.9551 10.624H13.0271V17.04C13.0271 17.392 12.9418 17.664 12.7711 17.856C12.6005 18.0373 12.3445 18.128 12.0031 18.128ZM8.05113 8.128C7.80579 8.128 7.61379 8.06933 7.47513 7.952C7.34713 7.824 7.28313 7.648 7.28313 7.424C7.28313 7.2 7.34713 7.02933 7.47513 6.912C7.61379 6.784 7.80579 6.72 8.05113 6.72H15.9551C16.2005 6.72 16.3871 6.784 16.5151 6.912C16.6538 7.02933 16.7231 7.2 16.7231 7.424C16.7231 7.648 16.6538 7.824 16.5151 7.952C16.3871 8.06933 16.2005 8.128 15.9551 8.128H8.05113Z" fill="#F83D4F"/>
</svg>
