<svg width="33" height="32" viewBox="0 0 33 32" fill="none" xmlns="http://www.w3.org/2000/svg">
<path d="M29.8064 15.2133C29.3531 7.47993 22.3264 1.51995 14.2331 2.85328C8.65973 3.77328 4.19307 8.29326 3.32641 13.8666C2.81974 17.0933 3.48644 20.1466 4.93977 22.6666L3.75308 27.0799C3.48642 28.0799 4.40639 28.9866 5.39306 28.7066L9.73974 27.5066C11.7131 28.6666 14.0197 29.3333 16.4864 29.3333C24.0064 29.3333 30.2464 22.7066 29.8064 15.2133ZM23.0064 20.9599C22.8864 21.1999 22.7397 21.4266 22.5531 21.6399C22.2197 21.9999 21.8597 22.2666 21.4597 22.4266C21.0597 22.5999 20.6197 22.6799 20.1531 22.6799C19.4731 22.6799 18.7397 22.5199 17.9797 22.1866C17.2064 21.8533 16.4464 21.4133 15.6864 20.8666C14.9131 20.3066 14.1931 19.6799 13.4997 18.9999C12.8064 18.3066 12.193 17.5732 11.633 16.8132C11.0864 16.0532 10.6464 15.2933 10.3264 14.5333C10.0064 13.7733 9.84643 13.0399 9.84643 12.3466C9.84643 11.8933 9.92642 11.4533 10.0864 11.0533C10.2464 10.6399 10.4998 10.2666 10.8598 9.93328C11.2864 9.50661 11.7531 9.30661 12.2464 9.30661C12.4331 9.30661 12.6197 9.34661 12.793 9.42661C12.9664 9.50661 13.1264 9.6266 13.2464 9.79994L14.793 11.9866C14.913 12.1599 15.0064 12.3066 15.0597 12.4533C15.1264 12.5999 15.1531 12.7333 15.1531 12.8666C15.1531 13.0266 15.0998 13.1866 15.0064 13.3466C14.9131 13.5066 14.793 13.6666 14.633 13.8266L14.1264 14.3599C14.0464 14.4399 14.0198 14.5199 14.0198 14.6266C14.0198 14.6799 14.033 14.7333 14.0464 14.7866C14.073 14.8399 14.0864 14.8799 14.0998 14.9199C14.2198 15.1466 14.4331 15.4266 14.7264 15.7732C15.0331 16.1199 15.3531 16.4799 15.6998 16.8266C16.0598 17.1866 16.4064 17.5066 16.7664 17.8132C17.1131 18.1066 17.4064 18.3066 17.633 18.4266C17.673 18.4399 17.7131 18.4666 17.7531 18.4799C17.8064 18.5066 17.8598 18.5066 17.9264 18.5066C18.0464 18.5066 18.1265 18.4666 18.2065 18.3866L18.713 17.8799C18.8864 17.7066 19.0464 17.5866 19.1931 17.5066C19.3531 17.4133 19.4998 17.3599 19.6731 17.3599C19.8064 17.3599 19.9397 17.3866 20.0864 17.4533C20.2331 17.5199 20.3931 17.5999 20.5531 17.7199L22.7664 19.2933C22.9398 19.4133 23.0597 19.5599 23.1397 19.7199C23.2064 19.8933 23.2464 20.0533 23.2464 20.2399C23.1664 20.4666 23.1131 20.7199 23.0064 20.9599Z" fill="#44BC50"/>
</svg>
